{"title":"The Inventing Of Lying DVDRip XviD AC3-PRESTIGE","uid":6239761,"size":735957910,"categoryP":"video","categoryS":"movies","magnet":"?xt=urn:btih:176736b80eba9e96e4c963e21d705d6e6855c6d5&amp;dn=The+Inventing+Of+Lying+DVDRip+XviD+AC3-PRESTIGE&amp;tr=udp%3A%2F%2Ftracker.openbittorrent.com%3A80&amp;tr=udp%3A%2F%2Fopen.demonii.com%3A1337&amp;tr=udp%3A%2F%2Ftracker.coppersurfer.tk%3A6969&amp;tr=udp%3A%2F%2Fexodus.desync.com%3A6969","seeders":0,"leechers":1,"uploader":"sceneline","files":10,"time":1300021481,"description":"-\nhttp:// www . torrentkit. com        \nhttp:// www .torrentkit. com       the fast  and The Hottest Private Tracker on the net\n\nPlease Seed back to make the speed Faster!!!\n\nand don't forget to visit      ...... www .torrentkit .com..........\n-*******************************************************************************\n                The Inventing Of Lying DVDRip XviD AC3-PRESTIGE\n*******************************************************************************\n\n-------------------------------------------------------------------------------\n                              General Information\n-------------------------------------------------------------------------------\nType.................: Movie\n\n\n\nVideo Format.........: AVI\nSource...............: DVD 16x9\nGenre................: Comedy\nMovie Information....: http://www.imdb.com/title/tt1058017/\n\n-------------------------------------------------------------------------------\n                                 Release Notes\n-------------------------------------------------------------------------------\nThe Inventing Of Lying DVDRip XviD AC3-PRESTIGE\n\nFormat                           : AVI\nFormat/Info                      : Audio Video Interleave\nFile size                        : 701 MiB\nDuration                         : 1h 35mn\nOverall bit rate                 : 1 025 Kbps\nWriting application              : VirtualDubMod 1.5.4.1 (build 2178/release)\nWriting library                  : VirtualDubMod build 2178/release\n\nVideo\nID                               : 0\nFormat                           : MPEG-4 Visual\nFormat profile                   : Advanced Simple@L5\nFormat settings, BVOP            : 1\nFormat settings, QPel            : No\nFormat settings, GMC             : No warppoints\nFormat settings, Matrix          : Custom\nCodec ID                         : XVID\nCodec ID/Hint                    : XviD\nDuration                         : 1h 35mn\nBit rate                         : 634 Kbps\nWidth                            : 608 pixels\nHeight                           : 336 pixels\nDisplay aspect ratio             : 16:9\nFrame rate                       : 25.000 fps\nColor space                      : YUV\nChroma subsampling               : 4:2:0\nBit depth                        : 8 bits\nScan type                        : Progressive\nCompression mode                 : Lossy\nBits/(Pixel*Frame)               : 0.124\nStream size                      : 433 MiB (62%)\nWriting library                  : XviD 1.2.1 (UTC 2008-12-04)\n\nAudio\nID                               : 1\nFormat                           : AC-3\nFormat/Info                      : Audio Coding 3\nMode extension                   : CM (complete main)\nCodec ID                         : 2000\nDuration                         : 1h 35mn\nBit rate mode                    : Constant\nBit rate                         : 384 Kbps\nChannel(s)                       : 6 channels\nChannel positions                : Front: L C R, Side: L R, LFE\nSampling rate                    : 48.0 KHz\nBit depth                        : 16 bits\nCompression mode                 : Lossy\nStream size                      : 263 MiB (37%)\nAlignment                        : Aligned on interleaves\nInterleave, duration             : 96 ms (2.40 video frames)\nInterleave, preload duration     : 96 ms\n\nPRESTIGE RELEASE Ripped By Mazz 27 february\n\n\nEnjoy\n\n\n\n-------------------------------------------------------------------------------\nGenerated with Cool NFO Creator - http://fly.to/coolbeans\n-------------------------------------------------------------------------------","torrent":{"xt":"urn:btih:176736b80eba9e96e4c963e21d705d6e6855c6d5","amp;dn":"The+Inventing+Of+Lying+DVDRip+XviD+AC3-PRESTIGE","amp;tr":["udp%3A%2F%2Ftracker.openbittorrent.com%3A80","udp%3A%2F%2Fopen.demonii.com%3A1337","udp%3A%2F%2Ftracker.coppersurfer.tk%3A6969","udp%3A%2F%2Fexodus.desync.com%3A6969"],"infoHash":"176736b80eba9e96e4c963e21d705d6e6855c6d5","infoHashBuffer":{"type":"Buffer","data":[23,103,54,184,14,186,158,150,228,201,99,226,29,112,93,110,104,85,198,213]},"announce":[],"urlList":[]}}